<?xml version="1.0" standalone="no"?>
<!DOCTYPE svg PUBLIC "-//W3C//DTD SVG 20010904//EN"
 "http://www.w3.org/TR/2001/REC-SVG-20010904/DTD/svg10.dtd">
<svg version="1.0" xmlns="http://www.w3.org/2000/svg"
 width="2732.000000pt" height="2732.000000pt" viewBox="0 0 2732.000000 2732.000000"
 preserveAspectRatio="xMidYMid meet">
<metadata>
Created by potrace 1.16, written by Peter Selinger 2001-2019
</metadata>
<g transform="translate(0.000000,2732.000000) scale(0.100000,-0.100000)"
fill="#000000" stroke="none">
<path d="M9060 23342 c-234 -51 198 365 -4204 -4048 -2782 -2789 -3881 -3898
-3913 -3946 -36 -54 -49 -85 -63 -153 -16 -80 -16 -90 0 -168 14 -68 25 -96
67 -157 39 -56 605 -631 2269 -2300 1219 -1224 2970 -2981 3891 -3906 1900
-1909 1778 -1795 1973 -1833 l105 -21 103 20 c57 11 113 25 124 31 119 64 202
139 911 827 850 823 840 815 1021 852 l106 21 107 -21 c179 -37 173 -32 1022
-864 817 -801 830 -812 1007 -867 l91 -29 109 31 c83 23 128 42 189 82 115 74
263 221 345 343 65 96 70 106 88 205 21 112 21 117 -10 288 -32 177 -63 219
-466 626 -180 182 -680 688 -1112 1125 -431 437 -967 979 -1190 1205 -223 225
-585 592 -805 815 -220 223 -585 592 -811 820 -225 228 -754 764 -1174 1190
-420 426 -873 885 -1007 1020 -289 293 -334 353 -359 487 -15 81 -15 93 1 172
31 161 -57 67 1749 1863 2075 2064 2023 2012 2084 2053 102 69 258 71 365 4
66 -41 755 -725 808 -801 52 -76 59 -114 39 -213 -12 -63 -25 -94 -59 -144
-27 -40 -500 -530 -1217 -1262 -1322 -1350 -1269 -1290 -1300 -1464 -17 -91
-17 -101 0 -191 16 -81 25 -106 68 -172 56 -87 -45 17 1933 -1977 731 -737
1566 -1578 1855 -1870 288 -291 800 -807 1135 -1145 336 -338 1117 -1125 1735
-1749 1288 -1298 1228 -1244 1420 -1282 l110 -22 107 22 c208 41 -164 -312
3934 3730 1999 1972 3748 3697 3887 3835 319 316 365 377 397 537 l22 106 -21
105 c-39 196 224 -80 -3106 3259 -1630 1636 -3363 3374 -3850 3862 -836 840
-891 893 -1001 967 l-116 78 -129 26 -129 26 -127 -25 c-230 -44 -218 -34
-1090 -886 -807 -789 -815 -795 -953 -821 -72 -13 -88 -12 -163 3 -65 13 -96
26 -152 62 -47 32 -309 280 -806 764 -677 660 -745 724 -846 789 -108 70 -112
72 -231 94 l-122 23 -125 -24 -125 -24 -110 -74 c-139 -93 -229 -181 -307
-298 -53 -82 -63 -104 -80 -185 -21 -106 -19 -171 14 -337 36 -186 -128 -9
1713 -1861 363 -366 1220 -1230 1905 -1920 685 -690 1531 -1543 1880 -1895
1268 -1278 1437 -1450 1462 -1495 60 -105 58 -247 -4 -340 -44 -65 -79 -100
-1173 -1205 -2206 -2227 -2568 -2590 -2632 -2633 -47 -32 -82 -46 -139 -58
-69 -14 -81 -14 -152 1 -124 27 -151 51 -522 440 -58 60 -155 162 -216 225
-61 63 -124 140 -141 170 -72 128 -63 302 22 428 27 40 489 524 1212 1269
1315 1357 1267 1302 1297 1473 16 91 16 99 -2 188 -17 80 -27 104 -74 175 -46
69 -679 707 -3901 3933 -3720 3724 -3849 3853 -3954 3921 -112 74 -128 79
-348 118 -11 2 -76 -9 -145 -23z m4746 -377 c121 -29 156 -60 904 -810 651
-653 702 -702 812 -776 l118 -79 136 -28 137 -29 136 26 136 27 119 78 c110
72 164 121 680 624 309 300 627 611 708 691 88 86 177 164 221 191 146 94 318
94 458 -1 47 -31 1155 -1132 3786 -3759 4167 -4162 3822 -3804 3860 -3998 l20
-104 -21 -103 c-20 -94 -28 -112 -80 -188 -66 -96 -23 -53 -2016 -2022 -228
-225 -597 -590 -820 -810 -223 -221 -785 -776 -1250 -1235 -465 -459 -1025
-1012 -1245 -1230 -1513 -1500 -2180 -2153 -2248 -2198 -60 -41 -86 -52 -154
-64 -74 -14 -91 -14 -160 0 -152 30 96 -207 -2953 2827 -680 677 -3325 3305
-4443 4415 -200 198 -343 349 -367 385 -56 86 -76 182 -56 277 8 39 29 94 48
125 29 50 873 933 2034 2128 306 316 325 337 388 438 37 60 47 88 62 170 l17
98 -28 142 c-43 215 -46 220 -549 725 -479 482 -522 517 -670 546 -85 17 -94
17 -180 0 -168 -32 -42 87 -2207 -2081 -2176 -2179 -2032 -2025 -2064 -2204
-17 -92 -17 -100 0 -190 16 -80 25 -105 68 -169 39 -60 752 -779 3531 -3560
2642 -2645 3489 -3498 3513 -3540 17 -30 33 -66 34 -80 6 -60 -14 -131 -53
-192 -50 -78 -203 -236 -283 -291 -129 -89 -292 -90 -421 -3 -39 26 -350 326
-841 813 -879 870 -870 863 -1043 902 l-95 21 -108 -20 c-162 -29 -222 -70
-488 -324 -63 -61 -375 -358 -692 -660 -663 -631 -676 -642 -843 -674 l-100
-19 -100 21 c-122 26 -195 69 -329 196 -49 47 -1714 1696 -3700 3665 -1985
1969 -3631 3600 -3657 3624 -26 24 -70 77 -98 117 -42 60 -53 87 -67 154 -15
76 -15 87 0 157 12 53 29 95 57 139 30 45 1029 1041 3646 3634 1982 1964 3674
3640 3760 3723 86 84 191 175 235 205 72 47 91 55 186 74 l106 22 108 -22
c188 -36 126 20 1446 -1295 637 -634 2311 -2300 3721 -3702 1832 -1823 2574
-2568 2604 -2613 83 -127 85 -280 6 -405 -28 -44 -379 -402 -1203 -1227 -1331
-1334 -1265 -1259 -1304 -1459 l-23 -115 23 -115 c22 -115 23 -117 101 -231
59 -88 113 -150 220 -256 556 -544 584 -571 672 -628 81 -52 99 -60 193 -78
l103 -19 102 20 c187 39 43 -96 2179 2029 2154 2142 2008 1987 2044 2180 18
97 18 105 1 204 -33 189 290 -147 -3556 3703 -2645 2647 -3446 3455 -3478
3505 -22 36 -43 81 -47 100 -22 123 115 321 306 442 85 55 183 68 295 43z"/>
<path d="M9075 21701 c-65 -14 -95 -27 -155 -68 -114 -78 -6237 -6207 -6309
-6315 -45 -68 -53 -88 -68 -173 -16 -90 -16 -101 1 -188 34 -181 -216 79 3123
-3253 2927 -2920 2990 -2982 3105 -3059 l117 -78 136 -27 135 -27 140 28 139
28 118 80 c104 69 152 113 403 367 259 262 293 301 367 414 l81 125 26 129
c14 71 26 142 26 157 0 16 -12 79 -26 141 -25 104 -32 121 -97 218 -65 99
-201 237 -2271 2310 -1718 1720 -2212 2220 -2246 2273 -33 52 -47 88 -61 155
-17 84 -17 90 2 180 16 78 26 103 68 165 36 53 640 662 2301 2322 2073 2071
2257 2258 2319 2350 63 95 68 107 85 200 18 99 18 101 -2 200 -49 237 -97 303
-601 808 -470 473 -518 512 -661 540 -99 20 -92 20 -195 -2z m288 -376 c125
-27 188 -77 505 -406 151 -155 285 -297 298 -314 15 -20 30 -60 38 -103 12
-61 11 -81 -3 -159 -14 -74 -25 -100 -66 -164 -39 -59 -384 -420 -1535 -1605
-817 -841 -1843 -1897 -2280 -2347 -904 -930 -894 -919 -924 -1087 -16 -90
-16 -99 1 -190 34 -184 -135 -4 2348 -2490 2082 -2084 2217 -2221 2282 -2320
66 -100 71 -110 91 -215 27 -135 27 -142 1 -278 -20 -103 -25 -115 -84 -206
-84 -128 -326 -373 -447 -455 -79 -53 -96 -60 -203 -83 l-117 -25 -117 23
c-205 40 -162 2 -1271 1115 -3997 4013 -4706 4729 -4762 4812 -43 64 -54 90
-70 166 -17 85 -17 94 -2 175 31 160 16 144 963 1096 465 468 1237 1244 1716
1725 478 481 1257 1264 1731 1740 473 476 994 1000 1157 1165 353 358 417 409
556 436 47 9 93 15 101 14 8 -2 50 -11 93 -20z"/>
<path d="M18095 21656 c-167 -36 -209 -70 -663 -537 -387 -399 -435 -456 -511
-608 -16 -31 -38 -101 -49 -156 -20 -100 -20 -100 -1 -195 37 -178 -123 -9
2378 -2528 1855 -1868 2253 -2274 2295 -2339 45 -68 54 -92 70 -175 17 -91 17
-99 0 -184 -33 -170 44 -86 -1598 -1734 -809 -811 -1814 -1819 -2233 -2240
-868 -871 -857 -858 -892 -1027 -20 -101 -20 -103 -2 -197 16 -79 27 -109 66
-171 75 -120 107 -156 508 -568 317 -326 397 -403 477 -457 90 -62 100 -67
195 -84 98 -18 102 -18 201 2 186 36 -76 -215 3280 3144 3417 3419 3102 3088
3149 3320 l26 127 -25 130 c-24 129 -25 130 -96 238 -69 103 -204 240 -3059
3096 -3368 3371 -3090 3105 -3290 3146 -121 25 -100 25 -226 -3z m112 -330
c35 -7 89 -29 120 -47 45 -26 722 -697 2946 -2919 3247 -3244 2987 -2972 3026
-3169 l21 -105 -21 -109 c-41 -205 161 10 -2524 -2684 -1303 -1308 -2592
-2602 -2865 -2876 -553 -556 -587 -585 -717 -608 -113 -19 -205 0 -298 63 -85
57 -652 632 -707 718 -79 120 -71 281 19 413 26 37 112 131 192 210 80 78
1112 1099 2292 2270 2443 2421 2267 2235 2307 2442 27 136 27 147 1 276 -20
97 -25 109 -92 208 -65 99 -207 243 -1996 2041 -1059 1064 -2107 2117 -2328
2341 -222 223 -420 429 -440 459 -46 68 -66 155 -52 222 10 44 28 64 372 399
219 213 388 369 429 397 100 66 195 84 315 58z"/>
<path d="M13618 17140 c-86 -17 -131 -38 -219 -102 -25 -18 -406 -391 -846
-828 -905 -899 -897 -890 -932 -1053 l-21 -99 20 -104 c34 -176 24 -165 887
-1025 675 -673 758 -752 846 -809 94 -61 103 -64 220 -87 l121 -23 121 25
c115 24 124 28 219 93 89 60 182 151 839 818 849 863 840 852 872 1029 17 98
17 102 -4 202 -35 175 -27 165 -910 1055 -559 563 -793 792 -849 831 -78 54
-96 61 -254 91 -13 2 -62 -4 -110 -14z m182 -307 c69 -14 99 -26 160 -66 93
-60 108 -74 807 -771 650 -646 658 -656 689 -813 17 -88 17 -95 -1 -190 -30
-161 -29 -160 -788 -923 -739 -743 -754 -755 -892 -782 -75 -15 -86 -15 -166
1 -143 29 -156 41 -900 788 -755 758 -754 757 -785 921 -17 88 -17 96 0 183
30 161 41 174 773 897 704 696 733 721 873 753 97 22 127 23 230 2z"/>
<path d="M6790 5800 l0 -100 275 0 275 0 2 -697 3 -698 110 0 110 0 3 698 2
697 275 0 275 0 0 100 0 100 -665 0 -665 0 0 -100z"/>
<path d="M9713 5883 c3 -10 147 -371 320 -803 281 -701 317 -785 337 -785 19
0 49 70 276 630 301 745 273 680 283 669 4 -5 124 -300 267 -656 222 -555 262
-648 279 -648 17 0 64 111 329 773 171 424 316 787 323 805 l13 32 -108 0
-108 0 -213 -539 c-212 -535 -226 -570 -234 -561 -2 3 -102 250 -223 550
l-220 545 -108 0 -109 0 -220 -547 c-121 -302 -223 -548 -227 -548 -3 0 -105
247 -226 550 l-219 550 -109 0 c-99 0 -108 -2 -103 -17z"/>
<path d="M13870 5100 l0 -801 108 3 107 3 3 798 2 797 -110 0 -110 0 0 -800z"/>
<path d="M15982 5103 l3 -798 102 -3 103 -3 2 622 3 622 94 -109 c52 -60 294
-340 539 -621 l445 -513 93 0 94 0 0 800 0 800 -105 0 -105 0 -2 -621 -3 -621
-543 621 -543 621 -90 0 -89 0 2 -797z"/>
<path d="M19352 5103 l3 -798 102 -3 103 -3 2 622 3 621 90 -104 c50 -57 292
-336 539 -621 l448 -517 94 0 94 0 0 800 0 800 -105 0 -105 0 -2 -620 -3 -621
-543 621 -544 620 -89 0 -89 0 2 -797z"/>
</g>
</svg>
