<?xml version="1.0" standalone="no"?>
<!DOCTYPE svg PUBLIC "-//W3C//DTD SVG 20010904//EN"
 "http://www.w3.org/TR/2001/REC-SVG-20010904/DTD/svg10.dtd">
<svg version="1.0" xmlns="http://www.w3.org/2000/svg"
 width="2732.000000pt" height="2732.000000pt" viewBox="0 0 2732.000000 2732.000000"
 preserveAspectRatio="xMidYMid meet">
<metadata>
Created by potrace 1.16, written by Peter Selinger 2001-2019
</metadata>
<g transform="translate(0.000000,2732.000000) scale(0.100000,-0.100000)"
fill="#000000" stroke="none">
<path d="M9069 22261 c-124 -26 -128 -27 -237 -99 -104 -69 -160 -123 -934
-900 -452 -455 -2192 -2200 -3866 -3878 -2215 -2221 -3056 -3070 -3090 -3120
-36 -55 -49 -86 -62 -151 -16 -78 -16 -88 0 -167 23 -116 54 -160 245 -356 88
-91 1849 -1860 3914 -3933 3192 -3203 3767 -3776 3841 -3826 81 -55 94 -61
197 -81 l110 -22 108 21 c183 35 181 33 1035 861 844 818 833 809 1013 846
l107 21 108 -22 c177 -35 167 -27 1017 -859 824 -806 837 -817 1012 -871 l93
-28 111 32 c91 26 127 43 198 90 108 74 279 249 348 356 44 69 54 94 72 184
22 110 22 117 -11 305 -35 198 4 152 -1019 1187 -486 492 -1237 1252 -1669
1689 -432 437 -1154 1169 -1605 1625 -450 457 -993 1006 -1205 1220 -1438
1451 -1394 1402 -1426 1568 -16 82 -16 92 1 175 32 162 -69 55 1947 2058 1196
1189 1839 1822 1881 1849 125 84 258 82 391 -5 79 -53 727 -697 788 -785 50
-71 60 -135 39 -235 -12 -56 -29 -96 -57 -139 -22 -34 -214 -238 -444 -473
-482 -492 -1161 -1185 -1614 -1648 -395 -402 -433 -453 -461 -608 -17 -93 -17
-101 0 -191 15 -78 26 -107 63 -165 58 -91 79 -113 937 -976 396 -399 1211
-1220 1811 -1825 5208 -5253 5031 -5076 5133 -5144 89 -60 103 -66 201 -86
l105 -21 110 21 c206 40 -147 -294 3782 3580 1918 1892 3673 3624 3900 3849
482 478 502 502 538 670 l22 104 -21 109 c-40 198 282 -137 -3633 3790 -1918
1924 -3647 3659 -3842 3856 -322 325 -367 367 -476 440 l-120 81 -131 26 -131
27 -134 -27 -134 -26 -111 -74 c-99 -67 -188 -151 -842 -790 -525 -513 -750
-726 -798 -756 -49 -31 -87 -46 -148 -58 -75 -15 -88 -15 -163 0 -65 13 -96
26 -151 63 -47 31 -313 283 -806 764 -868 844 -870 846 -1090 886 l-118 22
-127 -27 c-124 -26 -127 -28 -231 -99 -119 -83 -255 -218 -318 -315 -33 -52
-46 -86 -62 -164 -22 -109 -19 -179 18 -346 27 -124 71 -183 345 -459 1191
-1202 4334 -4370 4841 -4881 1495 -1504 1734 -1747 1763 -1795 68 -109 66
-251 -7 -359 -20 -32 -210 -231 -421 -444 -211 -213 -854 -862 -1429 -1442
-1834 -1852 -1871 -1889 -1945 -1940 -136 -92 -292 -92 -430 2 -84 57 -687
685 -740 770 -73 119 -66 276 18 408 30 48 383 418 1216 1277 1319 1361 1265
1299 1295 1472 17 93 17 99 -3 188 -17 77 -29 105 -72 170 -42 62 -828 855
-3897 3930 -3721 3728 -3849 3855 -3955 3925 -107 71 -112 73 -236 98 l-126
26 -126 -25z m4722 -356 c43 -9 94 -29 124 -47 29 -18 349 -329 775 -753 660
-657 735 -728 834 -795 l110 -73 139 -29 140 -28 137 26 138 26 116 77 c104
70 177 137 768 712 359 349 682 662 718 696 100 95 179 141 271 160 72 15 86
14 161 -1 61 -12 98 -27 147 -58 51 -32 922 -896 3790 -3762 4158 -4155 3818
-3803 3857 -3995 l21 -103 -20 -102 c-19 -92 -26 -109 -81 -192 -64 -95 9 -22
-2716 -2713 -781 -772 -1126 -1112 -2075 -2051 -406 -402 -1787 -1766 -2435
-2405 -337 -332 -382 -367 -509 -391 -74 -14 -89 -14 -158 1 -55 11 -96 27
-143 57 -47 30 -246 221 -710 683 -355 352 -1381 1372 -2280 2266 -4066 4040
-4585 4558 -4625 4614 -62 87 -82 182 -61 284 26 124 26 125 506 621 146 151
401 415 565 585 165 171 532 551 815 844 604 625 617 642 646 812 l17 104 -27
129 c-41 193 -49 204 -558 714 -486 487 -516 512 -660 541 -89 18 -97 18 -183
2 -78 -15 -100 -24 -165 -68 -112 -77 -3967 -3937 -4037 -4043 -43 -65 -52
-88 -68 -171 -17 -92 -17 -100 0 -190 15 -81 24 -104 68 -169 39 -59 792 -818
3522 -3550 2670 -2673 3481 -3490 3513 -3541 45 -70 50 -98 32 -177 -22 -95
-189 -289 -327 -381 -84 -56 -176 -76 -275 -59 -126 21 -140 32 -981 867 -852
845 -871 861 -1025 900 -97 25 -128 26 -243 5 -161 -30 -169 -36 -1000 -828
-836 -796 -834 -795 -1003 -827 -100 -20 -100 -20 -200 1 -188 38 116 -251
-3663 3495 -1863 1849 -3544 3514 -3734 3702 -396 392 -438 444 -459 568 -11
66 -11 85 4 151 24 109 81 187 283 384 181 176 4164 4122 5063 5015 294 292
923 915 1396 1384 985 976 958 952 1145 990 l103 21 106 -21 c180 -36 181 -38
897 -749 340 -338 1955 -1945 3588 -3570 1634 -1625 3030 -3014 3103 -3085
167 -162 223 -242 241 -343 17 -94 2 -185 -42 -257 -19 -31 -471 -492 -1202
-1225 -1347 -1351 -1276 -1271 -1315 -1479 l-22 -114 28 -131 c28 -130 29
-132 103 -243 69 -101 111 -146 440 -465 435 -422 476 -453 639 -483 99 -18
105 -18 202 0 183 33 40 -99 2174 2022 1763 1753 1904 1895 1965 1988 63 95
68 106 86 203 18 100 18 104 0 204 -36 196 289 -143 -3564 3713 -2655 2657
-3437 3445 -3470 3496 -49 79 -57 115 -41 195 31 154 259 377 419 409 87 17
79 17 162 0z"/>
<path d="M9083 20621 c-60 -13 -100 -29 -150 -61 -53 -34 -728 -703 -3161
-3134 -2583 -2581 -3103 -3105 -3151 -3176 -53 -77 -60 -94 -76 -183 -18 -94
-18 -100 0 -195 34 -180 -211 75 3122 -3250 2933 -2927 2991 -2984 3106 -3061
l118 -78 135 -27 134 -27 138 27 137 27 130 88 c116 78 157 114 376 336 235
236 252 256 357 414 l110 166 26 128 c32 158 32 168 1 302 -24 98 -33 118 -97
218 -70 107 -130 169 -2268 2310 -1417 1418 -2214 2224 -2244 2266 -39 56 -49
81 -65 160 -19 91 -19 97 -2 181 14 67 28 103 61 155 34 53 542 567 2315 2343
1829 1831 2283 2290 2324 2352 45 68 54 91 73 180 20 101 20 105 3 198 -20
107 -49 172 -138 305 -48 72 -140 170 -461 493 -475 478 -518 513 -675 543
-53 11 -96 18 -96 18 0 -1 -37 -9 -82 -18z m273 -357 c130 -27 189 -74 515
-412 155 -161 289 -302 297 -314 8 -11 23 -59 32 -105 17 -79 17 -89 1 -172
-29 -152 -25 -147 -837 -982 -401 -413 -749 -771 -773 -797 -24 -26 -118 -123
-210 -217 -91 -93 -240 -247 -331 -340 -91 -94 -239 -247 -330 -340 -91 -94
-243 -251 -339 -350 -173 -179 -358 -368 -686 -705 -93 -96 -240 -247 -326
-335 -85 -88 -309 -319 -498 -512 -407 -419 -445 -469 -475 -626 -17 -93 -17
-97 3 -196 18 -88 27 -111 72 -179 42 -61 510 -535 2273 -2302 2150 -2155
2223 -2229 2288 -2330 64 -102 67 -109 89 -228 l23 -122 -23 -121 c-28 -156
-47 -186 -259 -408 -119 -124 -189 -189 -260 -238 -88 -61 -105 -69 -197 -90
-125 -28 -148 -28 -276 -2 -200 41 53 -201 -3139 3010 -2184 2197 -2836 2858
-2874 2915 -40 61 -52 89 -67 166 -18 87 -18 96 -3 176 28 140 66 187 474 599
195 197 723 729 1175 1183 452 454 1589 1597 2528 2541 1863 1873 1791 1805
1933 1833 93 19 110 19 200 0z"/>
<path d="M18102 20575 c-91 -20 -113 -30 -195 -84 -79 -52 -148 -118 -472
-452 -209 -215 -394 -412 -411 -438 -109 -163 -134 -214 -153 -314 -18 -96
-18 -100 1 -194 18 -86 26 -106 78 -182 48 -71 448 -478 2296 -2340 1856
-1868 2249 -2268 2295 -2338 51 -75 57 -92 73 -181 17 -94 17 -100 -1 -187
-36 -169 108 -17 -2360 -2493 -2489 -2497 -2325 -2324 -2363 -2505 -20 -97
-20 -99 -1 -196 19 -94 24 -105 104 -230 79 -122 108 -155 468 -526 458 -472
499 -505 664 -540 l103 -22 103 20 c201 40 -79 -228 3285 3139 2850 2851 2985
2988 3054 3091 71 108 72 110 97 237 l24 129 -26 132 c-49 244 267 -91 -3149
3327 -2769 2771 -2988 2989 -3086 3055 -109 73 -106 72 -305 111 -11 2 -66 -7
-123 -19z m108 -314 c48 -11 95 -30 129 -53 29 -20 1344 -1324 2927 -2903
3240 -3231 2988 -2968 3030 -3170 l23 -110 -21 -110 c-40 -203 222 72 -3014
-3177 -2152 -2161 -2885 -2892 -2939 -2928 -55 -37 -87 -51 -148 -64 -70 -14
-84 -14 -154 0 -127 26 -165 57 -536 436 -183 187 -337 349 -343 361 -7 12
-17 54 -23 92 -16 97 4 194 58 273 23 34 950 961 2340 2341 2628 2606 2414
2380 2461 2605 l26 121 -24 120 c-22 113 -26 125 -85 217 -72 112 105 -68
-2732 2783 -2007 2018 -2007 2018 -2052 2085 -41 63 -57 157 -39 228 15 56 12
53 626 648 147 142 218 190 308 208 90 18 95 18 182 -3z"/>
<path d="M13590 16051 c-61 -13 -91 -28 -155 -73 -56 -39 -322 -296 -880 -849
-913 -906 -900 -890 -935 -1064 l-20 -101 20 -97 c34 -169 31 -165 892 -1023
679 -677 762 -756 848 -811 89 -57 102 -62 212 -83 l117 -22 122 23 c121 23
123 24 226 95 92 63 183 152 835 815 843 858 843 858 873 1031 16 93 16 102
-1 195 -33 174 -25 165 -911 1060 -863 871 -870 877 -1017 907 -95 20 -129 19
-226 -3z m204 -281 c161 -33 171 -42 894 -757 730 -721 736 -729 767 -894 17
-91 17 -101 1 -190 -30 -165 -27 -161 -785 -922 -743 -745 -752 -752 -898
-782 -77 -15 -89 -15 -165 0 -66 14 -95 26 -153 65 -48 33 -279 258 -741 722
-744 745 -759 763 -788 902 -20 98 -20 121 1 221 30 145 53 171 770 880 715
706 735 723 886 755 106 23 99 23 211 0z"/>
</g>
</svg>
